<?xml version="1.0" encoding="UTF-8"?>
<!DOCTYPE svg PUBLIC "-//W3C//DTD SVG 1.1//EN" "http://www.w3.org/Graphics/SVG/1.1/DTD/svg11.dtd">
<svg xmlns="http://www.w3.org/2000/svg" version="1.1" width="1920px" height="1080px" style="shape-rendering:geometricPrecision; text-rendering:geometricPrecision; image-rendering:optimizeQuality; fill-rule:evenodd; clip-rule:evenodd" xmlns:xlink="http://www.w3.org/1999/xlink">
<g><path style="opacity:1" fill="#fe0000" d="M -0.5,-0.5 C 319.5,-0.5 639.5,-0.5 959.5,-0.5C 959.5,359.5 959.5,719.5 959.5,1079.5C 639.5,1079.5 319.5,1079.5 -0.5,1079.5C -0.5,719.5 -0.5,359.5 -0.5,-0.5 Z"/></g>
<g><path style="opacity:1" fill="#00fe00" d="M 959.5,-0.5 C 1279.5,-0.5 1599.5,-0.5 1919.5,-0.5C 1919.5,359.5 1919.5,719.5 1919.5,1079.5C 1599.5,1079.5 1279.5,1079.5 959.5,1079.5C 959.5,719.5 959.5,359.5 959.5,-0.5 Z"/></g>
<g><path style="opacity:1" fill="#050000" d="M 480.5,57.5 C 505.169,57.3334 529.836,57.5 554.5,58C 586.615,59.4638 606.782,75.6304 615,106.5C 619.709,128.883 615.709,149.549 603,168.5C 589.528,183.486 572.694,191.986 552.5,194C 528.502,194.5 504.502,194.667 480.5,194.5C 480.5,148.833 480.5,103.167 480.5,57.5 Z"/></g>
<g><path style="opacity:1" fill="#010000" d="M 754.5,57.5 C 800.167,57.5 845.833,57.5 891.5,57.5C 891.666,66.8393 891.5,76.1726 891,85.5C 860.5,112.667 830,139.833 799.5,167C 830.165,167.5 860.832,167.667 891.5,167.5C 891.5,176.5 891.5,185.5 891.5,194.5C 845.833,194.5 800.167,194.5 754.5,194.5C 754.168,185.143 754.502,175.81 755.5,166.5C 786.019,139.48 816.685,112.647 847.5,86C 816.502,85.5 785.502,85.3334 754.5,85.5C 754.5,76.1667 754.5,66.8333 754.5,57.5 Z"/></g>
<g><path style="opacity:1" fill="#000100" d="M 1094.5,57.5 C 1129.28,58.3966 1152.61,75.2299 1164.5,108C 1154.51,108.5 1144.51,108.666 1134.5,108.5C 1131.55,101.7 1126.88,96.2001 1120.5,92C 1096.63,79.4628 1076.79,83.9628 1061,105.5C 1050.66,127.627 1055.16,146.127 1074.5,161C 1099.31,172.714 1119.65,167.38 1135.5,145C 1144.83,144.5 1154.16,144.334 1163.5,144.5C 1162.07,153.104 1158.57,160.771 1153,167.5C 1130.95,193.051 1103.79,200.551 1071.5,190C 1034.2,170.799 1021.37,140.966 1033,100.5C 1045.17,74.1719 1065.67,59.8386 1094.5,57.5 Z"/></g>
<g><path style="opacity:1" fill="#000100" d="M 1365.5,57.5 C 1402.98,57.8326 1427.15,75.8326 1438,111.5C 1443.02,147.858 1429.19,174.024 1396.5,190C 1360.12,201.211 1331.62,191.045 1311,159.5C 1295.31,125.953 1301.14,96.7863 1328.5,72C 1339.56,63.7049 1351.9,58.8716 1365.5,57.5 Z"/></g>
<g><path style="opacity:1" fill="#fe0000" d="M 508.5,85.5 C 521.171,85.3334 533.838,85.5001 546.5,86C 582.866,90.3741 596.033,110.207 586,145.5C 581.029,154.79 573.362,160.79 563,163.5C 559.25,164.708 555.416,165.542 551.5,166C 537.196,167.27 522.863,167.77 508.5,167.5C 508.5,140.167 508.5,112.833 508.5,85.5 Z"/></g>
<g><path style="opacity:1" fill="#00fd00" d="M 1365.5,85.5 C 1388.31,84.8099 1403.48,95.1432 1411,116.5C 1414.58,135.751 1408.41,150.918 1392.5,162C 1369.22,172.889 1350.06,168.056 1335,147.5C 1324.52,125.274 1329.02,106.774 1348.5,92C 1353.89,88.7516 1359.55,86.5849 1365.5,85.5 Z"/></g>
<g><path style="opacity:1" fill="#1a0400" d="M 32.5,118.5 C 35.5,118.5 38.5,118.5 41.5,118.5C 39.4214,123.003 37.5881,127.67 36,132.5C 35.3468,128.125 36.5135,124.292 39.5,121C 36.6385,121.03 34.3052,120.197 32.5,118.5 Z"/></g>
<g><path style="opacity:1" fill="#1e0600" d="M 55.5,125.5 C 53.46,128.134 51.2933,128.134 49,125.5C 47.4874,121.229 48.9874,118.895 53.5,118.5C 55.0293,118.529 56.196,119.196 57,120.5C 57.6667,123.833 57.6667,127.167 57,130.5C 55.1917,132.396 53.025,132.896 50.5,132C 49.4829,130.951 49.3162,129.784 50,128.5C 52.8641,131.326 55.0308,130.826 56.5,127C 56.4301,126.235 56.0967,125.735 55.5,125.5 Z"/></g>
<g><path style="opacity:1" fill="#0c1a05" d="M 1881.5,118.5 C 1883.72,118.178 1885.56,118.845 1887,120.5C 1887.67,123.833 1887.67,127.167 1887,130.5C 1884.16,133.371 1881.83,133.037 1880,129.5C 1879.01,125.525 1879.51,121.859 1881.5,118.5 Z"/></g>
<g><path style="opacity:1" fill="#0a1504" d="M 1897.5,118.5 C 1902.53,117.918 1904.19,119.918 1902.5,124.5C 1905.48,128.554 1904.48,131.221 1899.5,132.5C 1896.93,132.101 1895.6,130.601 1895.5,128C 1896.01,124.757 1896.68,121.591 1897.5,118.5 Z"/></g>
<g><path style="opacity:1" fill="#e80000" d="M 55.5,125.5 C 51.8622,126.263 50.3622,124.93 51,121.5C 55.5845,119.587 57.0845,120.921 55.5,125.5 Z"/></g>
<g><path style="opacity:1" fill="#00f200" d="M 1882.5,120.5 C 1883.82,120.33 1884.99,120.663 1886,121.5C 1886.67,124.167 1886.67,126.833 1886,129.5C 1884.67,130.833 1883.33,130.833 1882,129.5C 1881.26,126.408 1881.43,123.408 1882.5,120.5 Z"/></g>
<g><path style="opacity:1" fill="#00e100" d="M 1897.5,120.5 C 1904.17,121.5 1904.17,122.5 1897.5,123.5C 1897.5,122.5 1897.5,121.5 1897.5,120.5 Z"/></g>
<g><path style="opacity:1" fill="#1a0400" d="M 3.5,118.5 C 6.27757,118.022 8.27757,119.022 9.5,121.5C 7.52191,120.85 5.35524,120.85 3,121.5C 2.0644,124.569 2.89774,125.236 5.5,123.5C 9.14713,124.486 10.3138,126.819 9,130.5C 5.98765,133.25 3.32098,132.917 1,129.5C -0.188209,125.259 0.645124,121.592 3.5,118.5 Z"/></g>
<g><path style="opacity:1" fill="#520801" d="M 14.5,118.5 C 15.0776,123.267 14.0776,127.934 11.5,132.5C 11.1667,132.333 10.8333,132.167 10.5,132C 12.141,127.578 13.4743,123.078 14.5,118.5 Z"/></g>
<g><path style="opacity:1" fill="#f30000" d="M 3.5,125.5 C 7.13776,124.737 8.63776,126.07 8,129.5C 3.41546,131.413 1.91546,130.079 3.5,125.5 Z"/></g>
<g><path style="opacity:1" fill="#00f200" d="M 1897.5,125.5 C 1901.68,124.831 1903.01,126.331 1901.5,130C 1900.21,130.49 1898.87,130.657 1897.5,130.5C 1897.5,128.833 1897.5,127.167 1897.5,125.5 Z"/></g>
<g><path style="opacity:1" fill="#180400" d="M 24.5,118.5 C 27.2776,118.022 29.2776,119.022 30.5,121.5C 28.5387,122.848 28.3721,124.181 30,125.5C 31.3138,129.181 30.1471,131.514 26.5,132.5C 23.6458,132.451 22.4791,131.118 23,128.5C 25.5365,131.313 27.7031,131.146 29.5,128C 28.7679,126.235 27.4346,125.068 25.5,124.5C 26.5,123.667 27.5,122.833 28.5,122C 26.5217,119.985 24.6884,120.152 23,122.5C 22.516,120.807 23.016,119.473 24.5,118.5 Z"/></g>
<g><path style="opacity:1" fill="#040000" d="M 581.5,302.5 C 603.503,302.333 625.503,302.5 647.5,303C 675.659,309.007 689.659,326.507 689.5,355.5C 687.655,387.181 670.988,405.348 639.5,410C 620.17,410.5 600.836,410.667 581.5,410.5C 581.5,374.5 581.5,338.5 581.5,302.5 Z"/></g>
<g><path style="opacity:1" fill="#040000" d="M 797.5,302.5 C 819.503,302.333 841.503,302.5 863.5,303C 891.659,309.007 905.659,326.507 905.5,355.5C 903.655,387.181 886.988,405.348 855.5,410C 836.17,410.5 816.836,410.667 797.5,410.5C 797.5,374.5 797.5,338.5 797.5,302.5 Z"/></g>
<g><path style="opacity:1" fill="#000200" d="M 1013.5,302.5 C 1020.83,302.5 1028.17,302.5 1035.5,302.5C 1035.5,316.833 1035.5,331.167 1035.5,345.5C 1057.17,345.5 1078.83,345.5 1100.5,345.5C 1100.5,331.167 1100.5,316.833 1100.5,302.5C 1107.5,302.5 1114.5,302.5 1121.5,302.5C 1121.5,338.5 1121.5,374.5 1121.5,410.5C 1114.5,410.5 1107.5,410.5 1100.5,410.5C 1100.5,396.167 1100.5,381.833 1100.5,367.5C 1078.83,367.5 1057.17,367.5 1035.5,367.5C 1035.5,381.833 1035.5,396.167 1035.5,410.5C 1028.17,410.5 1020.83,410.5 1013.5,410.5C 1013.5,374.5 1013.5,338.5 1013.5,302.5 Z"/></g>
<g><path style="opacity:1" fill="#000200" d="M 1275.5,302.5 C 1305.83,300.152 1326.17,313.152 1336.5,341.5C 1328.8,341.831 1321.14,341.497 1313.5,340.5C 1297.21,320.537 1279.05,318.537 1259,334.5C 1251.9,343.301 1249.57,353.301 1252,364.5C 1255.81,376.307 1263.64,384.141 1275.5,388C 1292.23,390.803 1305.23,385.136 1314.5,371C 1321.83,370.5 1329.16,370.334 1336.5,370.5C 1328.71,396.446 1311.21,409.78 1284,410.5C 1254.1,408.544 1236.1,392.877 1230,363.5C 1228.67,330.815 1243.84,310.482 1275.5,302.5 Z"/></g>
<g><path style="opacity:1" fill="#fe0000" d="M 603.5,323.5 C 614.866,323.279 626.2,323.779 637.5,325C 661.784,328.973 671.618,343.14 667,367.5C 664.311,374.857 659.478,380.357 652.5,384C 647.625,385.802 642.625,387.135 637.5,388C 626.172,388.5 614.838,388.667 603.5,388.5C 603.5,366.833 603.5,345.167 603.5,323.5 Z"/></g>
<g><path style="opacity:1" fill="#fe0000" d="M 819.5,323.5 C 830.866,323.279 842.2,323.779 853.5,325C 877.784,328.973 887.618,343.14 883,367.5C 880.311,374.857 875.478,380.357 868.5,384C 863.625,385.802 858.625,387.135 853.5,388C 842.172,388.5 830.838,388.667 819.5,388.5C 819.5,366.833 819.5,345.167 819.5,323.5 Z"/></g>
<g><path style="opacity:1" fill="#0c1a05" d="M 1881.5,349.5 C 1883.72,349.178 1885.56,349.845 1887,351.5C 1887.67,354.833 1887.67,358.167 1887,361.5C 1884.16,364.371 1881.83,364.037 1880,360.5C 1879.01,356.525 1879.51,352.859 1881.5,349.5 Z"/></g>
<g><path style="opacity:1" fill="#2d0b00" d="M 53.5,349.5 C 54.8048,351.397 55.4714,353.731 55.5,356.5C 55.1667,358.833 54.8333,361.167 54.5,363.5C 53.6747,359.878 53.1747,356.211 53,352.5C 52.0347,354.26 50.868,354.594 49.5,353.5C 51.188,352.479 52.5213,351.145 53.5,349.5 Z"/></g>
<g><path style="opacity:1" fill="#00f200" d="M 1882.5,351.5 C 1883.82,351.33 1884.99,351.663 1886,352.5C 1886.67,355.167 1886.67,357.833 1886,360.5C 1884.67,361.833 1883.33,361.833 1882,360.5C 1881.26,357.408 1881.43,354.408 1882.5,351.5 Z"/></g>
<g><path style="opacity:1" fill="#1a0400" d="M 3.5,349.5 C 6.27757,349.022 8.27757,350.022 9.5,352.5C 7.52191,351.85 5.35524,351.85 3,352.5C 2.0644,355.569 2.89774,356.236 5.5,354.5C 9.14713,355.486 10.3138,357.819 9,361.5C 5.98765,364.25 3.32098,363.917 1,360.5C -0.188209,356.259 0.645124,352.592 3.5,349.5 Z"/></g>
<g><path style="opacity:1" fill="#520801" d="M 14.5,349.5 C 15.0776,354.267 14.0776,358.934 11.5,363.5C 11.1667,363.333 10.8333,363.167 10.5,363C 12.141,358.578 13.4743,354.078 14.5,349.5 Z"/></g>
<g><path style="opacity:1" fill="#081403" d="M 1895.5,349.5 C 1898.57,349.183 1901.57,349.516 1904.5,350.5C 1901.92,355.084 1899.59,359.084 1897.5,362.5C 1898.23,358.539 1899.9,355.039 1902.5,352C 1899.64,352.03 1897.31,351.197 1895.5,349.5 Z"/></g>
<g><path style="opacity:1" fill="#f30000" d="M 3.5,356.5 C 7.13776,355.737 8.63776,357.07 8,360.5C 3.41546,362.413 1.91546,361.079 3.5,356.5 Z"/></g>
<g><path style="opacity:1" fill="#250800" d="M 35.5,349.5 C 38.2385,348.965 40.0718,349.965 41,352.5C 41.6667,355.167 41.6667,357.833 41,360.5C 38.5247,364.405 35.858,364.405 33,360.5C 31.8118,356.259 32.6451,352.592 35.5,349.5 Z"/></g>
<g><path style="opacity:1" fill="#f70000" d="M 35.5,351.5 C 36.8221,351.33 37.9887,351.663 39,352.5C 39.6667,355.167 39.6667,357.833 39,360.5C 37.6667,361.833 36.3333,361.833 35,360.5C 34.2642,357.408 34.4309,354.408 35.5,351.5 Z"/></g>
<g><path style="opacity:1" fill="#180400" d="M 24.5,349.5 C 27.2776,349.022 29.2776,350.022 30.5,352.5C 28.5387,353.848 28.3721,355.181 30,356.5C 31.3138,360.181 30.1471,362.514 26.5,363.5C 23.6458,363.451 22.4791,362.118 23,359.5C 25.5365,362.313 27.7031,362.146 29.5,359C 28.7679,357.235 27.4346,356.068 25.5,355.5C 26.5,354.667 27.5,353.833 28.5,353C 26.5217,350.985 24.6884,351.152 23,353.5C 22.516,351.807 23.016,350.473 24.5,349.5 Z"/></g>
<g><path style="opacity:1" fill="#060000" d="M 658.5,496.5 C 664.167,496.5 669.833,496.5 675.5,496.5C 675.5,507.833 675.5,519.167 675.5,530.5C 692.833,530.5 710.167,530.5 727.5,530.5C 727.5,519.167 727.5,507.833 727.5,496.5C 733.167,496.5 738.833,496.5 744.5,496.5C 744.5,525.167 744.5,553.833 744.5,582.5C 738.833,582.5 733.167,582.5 727.5,582.5C 727.5,571.167 727.5,559.833 727.5,548.5C 710.167,548.5 692.833,548.5 675.5,548.5C 675.5,559.833 675.5,571.167 675.5,582.5C 669.833,582.5 664.167,582.5 658.5,582.5C 658.5,553.833 658.5,525.167 658.5,496.5 Z"/></g>
<g><path style="opacity:1" fill="#070100" d="M 830.5,496.5 C 836.167,496.5 841.833,496.5 847.5,496.5C 847.168,508.186 847.501,519.852 848.5,531.5C 862.313,520.188 875.98,508.688 889.5,497C 898.5,496.333 907.5,496.333 916.5,497C 899.995,510.675 883.662,524.508 867.5,538.5C 883.659,553.157 899.992,567.657 916.5,582C 907.833,582.667 899.167,582.667 890.5,582C 878.02,571.687 865.686,561.187 853.5,550.5C 851.833,551.833 850.167,553.167 848.5,554.5C 847.502,563.81 847.168,573.143 847.5,582.5C 841.833,582.5 836.167,582.5 830.5,582.5C 830.5,553.833 830.5,525.167 830.5,496.5 Z"/></g>
<g><path style="opacity:1" fill="#000100" d="M 1002.5,496.5 C 1031.17,496.5 1059.83,496.5 1088.5,496.5C 1088.83,502.537 1088.5,508.537 1087.5,514.5C 1068.35,531.148 1049.35,547.981 1030.5,565C 1049.83,565.5 1069.16,565.667 1088.5,565.5C 1088.5,571.167 1088.5,576.833 1088.5,582.5C 1059.83,582.5 1031.17,582.5 1002.5,582.5C 1002.17,576.463 1002.5,570.463 1003.5,564.5C 1022.65,547.852 1041.65,531.019 1060.5,514C 1041.17,513.5 1021.84,513.333 1002.5,513.5C 1002.5,507.833 1002.5,502.167 1002.5,496.5 Z"/></g>
<g><path style="opacity:1" fill="#000100" d="M 1174.5,496.5 C 1203.17,496.5 1231.83,496.5 1260.5,496.5C 1260.83,502.537 1260.5,508.537 1259.5,514.5C 1240.35,531.148 1221.35,547.981 1202.5,565C 1221.83,565.5 1241.16,565.667 1260.5,565.5C 1260.5,571.167 1260.5,576.833 1260.5,582.5C 1231.83,582.5 1203.17,582.5 1174.5,582.5C 1174.17,576.463 1174.5,570.463 1175.5,564.5C 1194.65,547.852 1213.65,531.019 1232.5,514C 1213.17,513.5 1193.84,513.333 1174.5,513.5C 1174.5,507.833 1174.5,502.167 1174.5,496.5 Z"/></g>
<g><path style="opacity:1" fill="#1e0600" d="M 55.5,539.5 C 53.46,542.134 51.2933,542.134 49,539.5C 47.4874,535.229 48.9874,532.895 53.5,532.5C 55.0293,532.529 56.196,533.196 57,534.5C 57.6667,537.833 57.6667,541.167 57,544.5C 55.1917,546.396 53.025,546.896 50.5,546C 49.4829,544.951 49.3162,543.784 50,542.5C 52.8641,545.326 55.0308,544.826 56.5,541C 56.4301,540.235 56.0967,539.735 55.5,539.5 Z"/></g>
<g><path style="opacity:1" fill="#0c1a05" d="M 1881.5,532.5 C 1883.72,532.178 1885.56,532.845 1887,534.5C 1887.67,537.833 1887.67,541.167 1887,544.5C 1884.16,547.371 1881.83,547.037 1880,543.5C 1879.01,539.525 1879.51,535.859 1881.5,532.5 Z"/></g>
<g><path style="opacity:1" fill="#e80000" d="M 55.5,539.5 C 51.8622,540.263 50.3622,538.93 51,535.5C 55.5845,533.587 57.0845,534.921 55.5,539.5 Z"/></g>
<g><path style="opacity:1" fill="#00f200" d="M 1882.5,534.5 C 1883.82,534.33 1884.99,534.663 1886,535.5C 1886.67,538.167 1886.67,540.833 1886,543.5C 1884.67,544.833 1883.33,544.833 1882,543.5C 1881.26,540.408 1881.43,537.408 1882.5,534.5 Z"/></g>
<g><path style="opacity:1" fill="#ee0801" d="M 71.5,535.5 C 255.833,535.5 440.167,535.5 624.5,535.5C 624.5,538.5 624.5,541.5 624.5,544.5C 440.167,544.5 255.833,544.5 71.5,544.5C 71.5,541.5 71.5,538.5 71.5,535.5 Z"/></g>
<g><path style="opacity:1" fill="#ee0801" d="M 1293.5,535.5 C 1481.83,535.5 1670.17,535.5 1858.5,535.5C 1858.5,538.5 1858.5,541.5 1858.5,544.5C 1670.17,544.5 1481.83,544.5 1293.5,544.5C 1293.5,541.5 1293.5,538.5 1293.5,535.5 Z"/></g>
<g><path style="opacity:1" fill="#1a0400" d="M 3.5,532.5 C 6.27757,532.022 8.27757,533.022 9.5,535.5C 7.52191,534.85 5.35524,534.85 3,535.5C 2.0644,538.569 2.89774,539.236 5.5,537.5C 9.14713,538.486 10.3138,540.819 9,544.5C 5.98765,547.25 3.32098,546.917 1,543.5C -0.188209,539.259 0.645124,535.592 3.5,532.5 Z"/></g>
<g><path style="opacity:1" fill="#520801" d="M 14.5,532.5 C 15.0776,537.267 14.0776,541.934 11.5,546.5C 11.1667,546.333 10.8333,546.167 10.5,546C 12.141,541.578 13.4743,537.078 14.5,532.5 Z"/></g>
<g><path style="opacity:1" fill="#f30000" d="M 3.5,539.5 C 7.13776,538.737 8.63776,540.07 8,543.5C 3.41546,545.413 1.91546,544.079 3.5,539.5 Z"/></g>
<g><path style="opacity:1" fill="#120300" d="M 23.5,532.5 C 28.5011,531.671 30.6678,533.671 30,538.5C 28.1667,540.333 26.3333,542.167 24.5,544C 26.5767,544.192 28.5767,544.692 30.5,545.5C 27.5,546.833 24.5,546.833 21.5,545.5C 24.1667,542.5 26.8333,539.5 29.5,536.5C 27.2754,533.868 24.942,533.868 22.5,536.5C 22.1667,536.167 21.8333,535.833 21.5,535.5C 22.1925,534.482 22.8592,533.482 23.5,532.5 Z"/></g>
<g><path style="opacity:1" fill="#180400" d="M 35.5,532.5 C 38.2776,532.022 40.2776,533.022 41.5,535.5C 39.5387,536.848 39.3721,538.181 41,539.5C 42.3138,543.181 41.1471,545.514 37.5,546.5C 34.6458,546.451 33.4791,545.118 34,542.5C 36.5365,545.313 38.7031,545.146 40.5,542C 39.7679,540.235 38.4346,539.068 36.5,538.5C 37.5,537.667 38.5,536.833 39.5,536C 37.5217,533.985 35.6884,534.152 34,536.5C 33.516,534.807 34.016,533.473 35.5,532.5 Z"/></g>
<g><path style="opacity:1" fill="#0b1804" d="M 1898.5,532.5 C 1901.28,532.022 1903.28,533.022 1904.5,535.5C 1904.17,535.833 1903.83,536.167 1903.5,536.5C 1900.62,533.514 1898.28,533.847 1896.5,537.5C 1898.34,537.755 1900.34,537.922 1902.5,538C 1906.17,544 1904.5,546.667 1897.5,546C 1897,545.5 1896.5,545 1896,544.5C 1895.33,541.167 1895.33,537.833 1896,534.5C 1896.99,533.934 1897.83,533.267 1898.5,532.5 Z"/></g>
<g><path style="opacity:1" fill="#00e600" d="M 1897.5,539.5 C 1899.17,539.5 1900.83,539.5 1902.5,539.5C 1902.5,541.167 1902.5,542.833 1902.5,544.5C 1897.58,545.585 1895.91,543.918 1897.5,539.5 Z"/></g>
<g><path style="opacity:1" fill="#0c0200" d="M 721.5,650.5 C 726.179,650.334 730.845,650.501 735.5,651C 749.118,666.406 762.618,681.906 776,697.5C 776.5,681.837 776.667,666.17 776.5,650.5C 781.167,650.5 785.833,650.5 790.5,650.5C 790.5,673.167 790.5,695.833 790.5,718.5C 785.821,718.666 781.155,718.499 776.5,718C 763,702.5 749.5,687 736,671.5C 735.5,687.163 735.333,702.83 735.5,718.5C 730.833,718.5 726.167,718.5 721.5,718.5C 721.5,695.833 721.5,673.167 721.5,650.5 Z"/></g>
<g><path style="opacity:1" fill="#0b0100" d="M 857.5,650.5 C 862.167,650.5 866.833,650.5 871.5,650.5C 871.5,659.5 871.5,668.5 871.5,677.5C 885.167,677.5 898.833,677.5 912.5,677.5C 912.5,668.5 912.5,659.5 912.5,650.5C 917.167,650.5 921.833,650.5 926.5,650.5C 926.5,673.167 926.5,695.833 926.5,718.5C 921.833,718.5 917.167,718.5 912.5,718.5C 912.5,709.5 912.5,700.5 912.5,691.5C 898.833,691.5 885.167,691.5 871.5,691.5C 871.5,700.5 871.5,709.5 871.5,718.5C 866.833,718.5 862.167,718.5 857.5,718.5C 857.5,695.833 857.5,673.167 857.5,650.5 Z"/></g>
<g><path style="opacity:1" fill="#010300" d="M 993.5,650.5 C 1007.84,650.333 1022.17,650.5 1036.5,651C 1052.72,655.404 1061.05,666.071 1061.5,683C 1060.82,702.694 1050.82,714.361 1031.5,718C 1018.84,718.5 1006.17,718.667 993.5,718.5C 993.5,695.833 993.5,673.167 993.5,650.5 Z"/></g>
<g><path style="opacity:1" fill="#010300" d="M 1129.5,650.5 C 1147.84,650.333 1166.17,650.5 1184.5,651C 1190.87,652.436 1195.04,656.269 1197,662.5C 1198.1,669.385 1197.43,676.051 1195,682.5C 1190.97,687.43 1185.81,690.097 1179.5,690.5C 1184.82,700.009 1190.82,709.175 1197.5,718C 1191.83,718.667 1186.17,718.667 1180.5,718C 1174.5,709.333 1168.5,700.667 1162.5,692C 1156.18,691.5 1149.84,691.334 1143.5,691.5C 1143.5,700.5 1143.5,709.5 1143.5,718.5C 1138.83,718.5 1134.17,718.5 1129.5,718.5C 1129.5,695.833 1129.5,673.167 1129.5,650.5 Z"/></g>
<g><path style="opacity:1" fill="#00fd00" d="M 1007.5,663.5 C 1018.52,662.717 1029.18,664.217 1039.5,668C 1045.77,671.699 1048.43,677.199 1047.5,684.5C 1047.79,696.048 1042.13,702.548 1030.5,704C 1022.84,704.5 1015.17,704.666 1007.5,704.5C 1007.5,690.833 1007.5,677.167 1007.5,663.5 Z"/></g>
<g><path style="opacity:1" fill="#00fe00" d="M 1143.5,663.5 C 1155.84,663.333 1168.17,663.5 1180.5,664C 1185.83,668.333 1185.83,672.667 1180.5,677C 1168.17,677.5 1155.84,677.667 1143.5,677.5C 1143.5,672.833 1143.5,668.167 1143.5,663.5 Z"/></g>
<g><path style="opacity:1" fill="#1e0600" d="M 39.5,684.5 C 37.46,687.134 35.2933,687.134 33,684.5C 31.4874,680.229 32.9874,677.895 37.5,677.5C 39.0293,677.529 40.196,678.196 41,679.5C 41.6667,682.833 41.6667,686.167 41,689.5C 39.1917,691.396 37.025,691.896 34.5,691C 33.4829,689.951 33.3162,688.784 34,687.5C 36.8641,690.326 39.0308,689.826 40.5,686C 40.4301,685.235 40.0967,684.735 39.5,684.5 Z"/></g>
<g><path style="opacity:1" fill="#0c1a05" d="M 1881.5,677.5 C 1883.72,677.178 1885.56,677.845 1887,679.5C 1887.67,682.833 1887.67,686.167 1887,689.5C 1884.16,692.371 1881.83,692.037 1880,688.5C 1879.01,684.525 1879.51,680.859 1881.5,677.5 Z"/></g>
<g><path style="opacity:1" fill="#2d0b00" d="M 26.5,677.5 C 27.8048,679.397 28.4714,681.731 28.5,684.5C 28.1667,686.833 27.8333,689.167 27.5,691.5C 26.6747,687.878 26.1747,684.211 26,680.5C 25.0347,682.26 23.868,682.594 22.5,681.5C 24.188,680.479 25.5213,679.145 26.5,677.5 Z"/></g>
<g><path style="opacity:1" fill="#e80000" d="M 39.5,684.5 C 35.8622,685.263 34.3622,683.93 35,680.5C 39.5845,678.587 41.0845,679.921 39.5,684.5 Z"/></g>
<g><path style="opacity:1" fill="#00f200" d="M 1882.5,679.5 C 1883.82,679.33 1884.99,679.663 1886,680.5C 1886.67,683.167 1886.67,685.833 1886,688.5C 1884.67,689.833 1883.33,689.833 1882,688.5C 1881.26,685.408 1881.43,682.408 1882.5,679.5 Z"/></g>
<g><path style="opacity:1" fill="#0e1c05" d="M 1896.5,677.5 C 1898.92,677.192 1901.26,677.526 1903.5,678.5C 1901.95,679.452 1900.29,679.785 1898.5,679.5C 1898.5,680.5 1898.5,681.5 1898.5,682.5C 1904.66,682.943 1905.99,685.777 1902.5,691C 1899.97,691.896 1897.81,691.396 1896,689.5C 1895.31,688.668 1895.48,688.002 1896.5,687.5C 1898.18,689.104 1900.18,689.771 1902.5,689.5C 1902.5,687.833 1902.5,686.167 1902.5,684.5C 1900.53,684.261 1898.7,684.594 1897,685.5C 1896.5,682.854 1896.34,680.187 1896.5,677.5 Z"/></g>
<g><path style="opacity:1" fill="#1a0400" d="M 3.5,677.5 C 6.27757,677.022 8.27757,678.022 9.5,680.5C 7.52191,679.85 5.35524,679.85 3,680.5C 2.0644,683.569 2.89774,684.236 5.5,682.5C 9.14713,683.486 10.3138,685.819 9,689.5C 5.98765,692.25 3.32098,691.917 1,688.5C -0.188209,684.259 0.645124,680.592 3.5,677.5 Z"/></g>
<g><path style="opacity:1" fill="#520801" d="M 14.5,677.5 C 15.0776,682.267 14.0776,686.934 11.5,691.5C 11.1667,691.333 10.8333,691.167 10.5,691C 12.141,686.578 13.4743,682.078 14.5,677.5 Z"/></g>
<g><path style="opacity:1" fill="#f30000" d="M 3.5,684.5 C 7.13776,683.737 8.63776,685.07 8,688.5C 3.41546,690.413 1.91546,689.079 3.5,684.5 Z"/></g>
<g><path style="opacity:1" fill="#250800" d="M 51.5,677.5 C 54.2385,676.965 56.0718,677.965 57,680.5C 57.6667,683.167 57.6667,685.833 57,688.5C 54.5247,692.405 51.858,692.405 49,688.5C 47.8118,684.259 48.6451,680.592 51.5,677.5 Z"/></g>
<g><path style="opacity:1" fill="#f70000" d="M 51.5,679.5 C 52.8221,679.33 53.9887,679.663 55,680.5C 55.6667,683.167 55.6667,685.833 55,688.5C 53.6667,689.833 52.3333,689.833 51,688.5C 50.2642,685.408 50.4309,682.408 51.5,679.5 Z"/></g>
<g><path style="opacity:1" fill="#0b0100" d="M 779.5,792.5 C 779.217,791.711 778.717,791.044 778,790.5C 777.5,803.162 777.333,815.829 777.5,828.5C 773.833,828.5 770.167,828.5 766.5,828.5C 766.5,810.167 766.5,791.833 766.5,773.5C 770.182,773.335 773.848,773.501 777.5,774C 788.707,786.205 799.54,798.705 810,811.5C 810.5,798.838 810.667,786.171 810.5,773.5C 814.167,773.5 817.833,773.5 821.5,773.5C 821.5,791.833 821.5,810.167 821.5,828.5C 817.818,828.665 814.152,828.499 810.5,828C 799.929,816.27 789.595,804.436 779.5,792.5 Z"/></g>
<g><path style="opacity:1" fill="#0b0100" d="M 889.5,792.5 C 889.217,791.711 888.717,791.044 888,790.5C 887.5,803.162 887.333,815.829 887.5,828.5C 883.833,828.5 880.167,828.5 876.5,828.5C 876.5,810.167 876.5,791.833 876.5,773.5C 880.182,773.335 883.848,773.501 887.5,774C 898.707,786.205 909.54,798.705 920,811.5C 920.5,798.838 920.667,786.171 920.5,773.5C 924.167,773.5 927.833,773.5 931.5,773.5C 931.5,791.833 931.5,810.167 931.5,828.5C 927.818,828.665 924.152,828.499 920.5,828C 909.929,816.27 899.595,804.436 889.5,792.5 Z"/></g>
<g><path style="opacity:1" fill="#010200" d="M 986.5,773.5 C 990.167,773.5 993.833,773.5 997.5,773.5C 997.169,780.863 997.503,788.197 998.5,795.5C 1006.69,788.904 1014.69,782.07 1022.5,775C 1028.39,773.424 1034.39,773.091 1040.5,774C 1030.33,782.676 1020.33,791.51 1010.5,800.5C 1020.02,810.191 1030.02,819.358 1040.5,828C 1035.17,828.667 1029.83,828.667 1024.5,828C 1016.66,821.486 1008.82,814.986 1001,808.5C 999.739,808.759 998.739,809.426 998,810.5C 997.501,816.491 997.334,822.491 997.5,828.5C 993.833,828.5 990.167,828.5 986.5,828.5C 986.5,810.167 986.5,791.833 986.5,773.5 Z"/></g>
<g><path style="opacity:1" fill="#000200" d="M 1096.5,773.5 C 1110.17,773.333 1123.84,773.5 1137.5,774C 1143.29,774.453 1147.45,777.286 1150,782.5C 1153.65,795.434 1149.15,803.767 1136.5,807.5C 1141.17,814.167 1145.83,820.833 1150.5,827.5C 1145.83,828.833 1141.17,828.833 1136.5,827.5C 1132.03,820.53 1127.36,813.696 1122.5,807C 1117.51,806.501 1112.51,806.334 1107.5,806.5C 1107.5,813.833 1107.5,821.167 1107.5,828.5C 1103.83,828.5 1100.17,828.5 1096.5,828.5C 1096.5,810.167 1096.5,791.833 1096.5,773.5 Z"/></g>
<g><path style="opacity:1" fill="#00fd00" d="M 1107.5,784.5 C 1117.51,784.334 1127.51,784.5 1137.5,785C 1141.5,788.333 1141.5,791.667 1137.5,795C 1127.51,795.5 1117.51,795.666 1107.5,795.5C 1107.5,791.833 1107.5,788.167 1107.5,784.5 Z"/></g>
<g><path style="opacity:1" fill="#b20000" d="M 779.5,792.5 C 778.833,804.5 778.167,816.5 777.5,828.5C 777.333,815.829 777.5,803.162 778,790.5C 778.717,791.044 779.217,791.711 779.5,792.5 Z"/></g>
<g><path style="opacity:1" fill="#b20000" d="M 889.5,792.5 C 888.833,804.5 888.167,816.5 887.5,828.5C 887.333,815.829 887.5,803.162 888,790.5C 888.717,791.044 889.217,791.711 889.5,792.5 Z"/></g>
<g><path style="opacity:1" fill="#0c1a05" d="M 1881.5,793.5 C 1883.72,793.178 1885.56,793.845 1887,795.5C 1887.67,798.833 1887.67,802.167 1887,805.5C 1884.16,808.371 1881.83,808.037 1880,804.5C 1879.01,800.525 1879.51,796.859 1881.5,793.5 Z"/></g>
<g><path style="opacity:1" fill="#000200" d="M 1896.5,801.5 C 1897.92,802.451 1899.59,802.784 1901.5,802.5C 1901.66,800.473 1901.5,798.473 1901,796.5C 1900.62,797.056 1900.12,797.389 1899.5,797.5C 1899.69,795.804 1900.52,794.471 1902,793.5C 1902.04,797.089 1902.87,800.422 1904.5,803.5C 1903.27,804.59 1902.44,805.924 1902,807.5C 1901.52,806.552 1901.35,805.552 1901.5,804.5C 1899.5,804.5 1897.5,804.5 1895.5,804.5C 1895.26,803.209 1895.6,802.209 1896.5,801.5 Z"/></g>
<g><path style="opacity:1" fill="#2d0b00" d="M 26.5,793.5 C 27.8048,795.397 28.4714,797.731 28.5,800.5C 28.1667,802.833 27.8333,805.167 27.5,807.5C 26.6747,803.878 26.1747,800.211 26,796.5C 25.0347,798.26 23.868,798.594 22.5,797.5C 24.188,796.479 25.5213,795.145 26.5,793.5 Z"/></g>
<g><path style="opacity:1" fill="#2d0b00" d="M 53.5,793.5 C 54.8048,795.397 55.4714,797.731 55.5,800.5C 55.1667,802.833 54.8333,805.167 54.5,807.5C 53.6747,803.878 53.1747,800.211 53,796.5C 52.0347,798.26 50.868,798.594 49.5,797.5C 51.188,796.479 52.5213,795.145 53.5,793.5 Z"/></g>
<g><path style="opacity:1" fill="#00f200" d="M 1882.5,795.5 C 1883.82,795.33 1884.99,795.663 1886,796.5C 1886.67,799.167 1886.67,801.833 1886,804.5C 1884.67,805.833 1883.33,805.833 1882,804.5C 1881.26,801.408 1881.43,798.408 1882.5,795.5 Z"/></g>
<g><path style="opacity:1" fill="#1a0400" d="M 3.5,793.5 C 6.27757,793.022 8.27757,794.022 9.5,796.5C 7.52191,795.85 5.35524,795.85 3,796.5C 2.0644,799.569 2.89774,800.236 5.5,798.5C 9.14713,799.486 10.3138,801.819 9,805.5C 5.98765,808.25 3.32098,807.917 1,804.5C -0.188209,800.259 0.645124,796.592 3.5,793.5 Z"/></g>
<g><path style="opacity:1" fill="#170400" d="M 34.5,793.5 C 36.924,793.192 39.2573,793.526 41.5,794.5C 39.604,795.466 37.604,795.799 35.5,795.5C 35.5,796.5 35.5,797.5 35.5,798.5C 41.6426,799.026 42.9759,801.86 39.5,807C 35.8905,808.131 34.0572,806.965 34,803.5C 36.5365,806.313 38.7031,806.146 40.5,803C 39.1773,800.335 37.1773,799.835 34.5,801.5C 33.5508,798.874 33.5508,796.208 34.5,793.5 Z"/></g>
<g><path style="opacity:1" fill="#112308" d="M 1899.5,797.5 C 1899.26,799.404 1898.26,800.738 1896.5,801.5C 1896.74,799.596 1897.74,798.262 1899.5,797.5 Z"/></g>
<g><path style="opacity:1" fill="#00db00" d="M 1896.5,801.5 C 1898.26,800.738 1899.26,799.404 1899.5,797.5C 1900.12,797.389 1900.62,797.056 1901,796.5C 1901.5,798.473 1901.66,800.473 1901.5,802.5C 1899.59,802.784 1897.92,802.451 1896.5,801.5 Z"/></g>
<g><path style="opacity:1" fill="#520801" d="M 14.5,793.5 C 15.0776,798.267 14.0776,802.934 11.5,807.5C 11.1667,807.333 10.8333,807.167 10.5,807C 12.141,802.578 13.4743,798.078 14.5,793.5 Z"/></g>
<g><path style="opacity:1" fill="#f30000" d="M 3.5,800.5 C 7.13776,799.737 8.63776,801.07 8,804.5C 3.41546,806.413 1.91546,805.079 3.5,800.5 Z"/></g>
<g><path style="opacity:1" fill="#090100" d="M 808.5,871.5 C 811.5,871.5 814.5,871.5 817.5,871.5C 817.5,877.167 817.5,882.833 817.5,888.5C 826.167,888.5 834.833,888.5 843.5,888.5C 843.5,882.833 843.5,877.167 843.5,871.5C 846.167,871.5 848.833,871.5 851.5,871.5C 851.5,885.833 851.5,900.167 851.5,914.5C 848.833,914.5 846.167,914.5 843.5,914.5C 843.5,908.833 843.5,903.167 843.5,897.5C 834.833,897.5 826.167,897.5 817.5,897.5C 817.5,903.167 817.5,908.833 817.5,914.5C 814.5,914.5 811.5,914.5 808.5,914.5C 808.5,900.167 808.5,885.833 808.5,871.5 Z"/></g>
<g><path style="opacity:1" fill="#0b0100" d="M 894.5,871.5 C 904.898,871.101 915.232,871.601 925.5,873C 933.54,876.741 937.54,883.075 937.5,892C 937.366,904.134 931.366,911.467 919.5,914C 911.173,914.5 902.84,914.666 894.5,914.5C 894.5,900.167 894.5,885.833 894.5,871.5 Z"/></g>
<g><path style="opacity:1" fill="#020701" d="M 998.5,871.5 C 1006.78,870.538 1013.62,873.204 1019,879.5C 1020.99,881.818 1022.16,884.484 1022.5,887.5C 1019.43,887.817 1016.43,887.484 1013.5,886.5C 1009.49,881.004 1004.16,879.171 997.5,881C 989.905,884.473 987.405,890.306 990,898.5C 994.126,904.97 999.959,907.137 1007.5,905C 1010.13,903.374 1012.46,901.374 1014.5,899C 1017.15,898.503 1019.81,898.336 1022.5,898.5C 1017.53,912.32 1007.86,917.153 993.5,913C 981.349,905.856 977.849,895.689 983,882.5C 986.746,876.72 991.913,873.054 998.5,871.5 Z"/></g>
<g><path style="opacity:1" fill="#020601" d="M 1066.5,871.5 C 1069.52,871.335 1072.52,871.502 1075.5,872C 1084,881.833 1092.5,891.667 1101,901.5C 1101.5,891.506 1101.67,881.506 1101.5,871.5C 1104.17,871.5 1106.83,871.5 1109.5,871.5C 1109.5,885.833 1109.5,900.167 1109.5,914.5C 1106.48,914.665 1103.48,914.498 1100.5,914C 1092.33,904.5 1084.17,895 1076,885.5C 1075.5,895.161 1075.33,904.828 1075.5,914.5C 1072.5,914.5 1069.5,914.5 1066.5,914.5C 1066.5,900.167 1066.5,885.833 1066.5,871.5 Z"/></g>
<g><path style="opacity:1" fill="#fe0000" d="M 903.5,880.5 C 909.909,880.183 916.243,880.683 922.5,882C 927.105,884.208 929.105,887.875 928.5,893C 928.94,899.562 925.94,903.562 919.5,905C 914.177,905.499 908.844,905.666 903.5,905.5C 903.5,897.167 903.5,888.833 903.5,880.5 Z"/></g>
<g><path style="opacity:1" fill="#0c1a05" d="M 1881.5,885.5 C 1883.72,885.178 1885.56,885.845 1887,887.5C 1887.67,890.833 1887.67,894.167 1887,897.5C 1884.16,900.371 1881.83,900.037 1880,896.5C 1879.01,892.525 1879.51,888.859 1881.5,885.5 Z"/></g>
<g><path style="opacity:1" fill="#2d0b00" d="M 26.5,885.5 C 27.8048,887.397 28.4714,889.731 28.5,892.5C 28.1667,894.833 27.8333,897.167 27.5,899.5C 26.6747,895.878 26.1747,892.211 26,888.5C 25.0347,890.26 23.868,890.594 22.5,889.5C 24.188,888.479 25.5213,887.145 26.5,885.5 Z"/></g>
<g><path style="opacity:1" fill="#00f200" d="M 1882.5,887.5 C 1883.82,887.33 1884.99,887.663 1886,888.5C 1886.67,891.167 1886.67,893.833 1886,896.5C 1884.67,897.833 1883.33,897.833 1882,896.5C 1881.26,893.408 1881.43,890.408 1882.5,887.5 Z"/></g>
<g><path style="opacity:1" fill="#1a0400" d="M 3.5,885.5 C 6.27757,885.022 8.27757,886.022 9.5,888.5C 7.52191,887.85 5.35524,887.85 3,888.5C 2.0644,891.569 2.89774,892.236 5.5,890.5C 9.14713,891.486 10.3138,893.819 9,897.5C 5.98765,900.25 3.32098,899.917 1,896.5C -0.188209,892.259 0.645124,888.592 3.5,885.5 Z"/></g>
<g><path style="opacity:1" fill="#0e1e05" d="M 1897.5,885.5 C 1902.31,884.855 1903.98,886.688 1902.5,891C 1905.57,895.191 1904.57,898.024 1899.5,899.5C 1896.72,899.099 1895.72,897.765 1896.5,895.5C 1898.18,897.104 1900.18,897.771 1902.5,897.5C 1902.5,895.833 1902.5,894.167 1902.5,892.5C 1901.02,892.762 1899.69,892.429 1898.5,891.5C 1899.91,890.757 1901.24,889.923 1902.5,889C 1900.41,887.073 1898.41,887.24 1896.5,889.5C 1896.17,889.167 1895.83,888.833 1895.5,888.5C 1896.19,887.482 1896.86,886.482 1897.5,885.5 Z"/></g>
<g><path style="opacity:1" fill="#520801" d="M 14.5,885.5 C 15.0776,890.267 14.0776,894.934 11.5,899.5C 11.1667,899.333 10.8333,899.167 10.5,899C 12.141,894.578 13.4743,890.078 14.5,885.5 Z"/></g>
<g><path style="opacity:1" fill="#f30000" d="M 3.5,892.5 C 7.13776,891.737 8.63776,893.07 8,896.5C 3.41546,898.413 1.91546,897.079 3.5,892.5 Z"/></g>
<g><path style="opacity:1" fill="#250800" d="M 51.5,885.5 C 54.2385,884.965 56.0718,885.965 57,888.5C 57.6667,891.167 57.6667,893.833 57,896.5C 54.5247,900.405 51.858,900.405 49,896.5C 47.8118,892.259 48.6451,888.592 51.5,885.5 Z"/></g>
<g><path style="opacity:1" fill="#f70000" d="M 51.5,887.5 C 52.8221,887.33 53.9887,887.663 55,888.5C 55.6667,891.167 55.6667,893.833 55,896.5C 53.6667,897.833 52.3333,897.833 51,896.5C 50.2642,893.408 50.4309,890.408 51.5,887.5 Z"/></g>
<g><path style="opacity:1" fill="#120300" d="M 34.5,885.5 C 39.5011,884.671 41.6678,886.671 41,891.5C 39.1667,893.333 37.3333,895.167 35.5,897C 37.5767,897.192 39.5767,897.692 41.5,898.5C 38.5,899.833 35.5,899.833 32.5,898.5C 35.1667,895.5 37.8333,892.5 40.5,889.5C 38.2754,886.868 35.942,886.868 33.5,889.5C 33.1667,889.167 32.8333,888.833 32.5,888.5C 33.1925,887.482 33.8592,886.482 34.5,885.5 Z"/></g>
<g><path style="opacity:1" fill="#060100" d="M 840.5,948.5 C 851.833,948.5 863.167,948.5 874.5,948.5C 874.663,950.857 874.497,953.19 874,955.5C 866.833,962 859.667,968.5 852.5,975C 859.826,975.5 867.159,975.666 874.5,975.5C 874.5,977.833 874.5,980.167 874.5,982.5C 863.167,982.5 851.833,982.5 840.5,982.5C 840.337,980.143 840.503,977.81 841,975.5C 848.407,968.882 855.907,962.382 863.5,956C 855.841,955.5 848.174,955.334 840.5,955.5C 840.5,953.167 840.5,950.833 840.5,948.5 Z"/></g>
<g><path style="opacity:1" fill="#0b0100" d="M 908.5,948.5 C 910.833,948.5 913.167,948.5 915.5,948.5C 915.5,952.833 915.5,957.167 915.5,961.5C 922.5,961.5 929.5,961.5 936.5,961.5C 936.5,957.167 936.5,952.833 936.5,948.5C 938.5,948.5 940.5,948.5 942.5,948.5C 942.5,959.833 942.5,971.167 942.5,982.5C 940.5,982.5 938.5,982.5 936.5,982.5C 936.5,977.833 936.5,973.167 936.5,968.5C 929.5,968.5 922.5,968.5 915.5,968.5C 915.5,973.167 915.5,977.833 915.5,982.5C 913.167,982.5 910.833,982.5 908.5,982.5C 908.5,971.167 908.5,959.833 908.5,948.5 Z"/></g>
<g><path style="opacity:1" fill="#020800" d="M 976.5,948.5 C 978.833,948.5 981.167,948.5 983.5,948.5C 983.174,952.884 983.508,957.217 984.5,961.5C 989.646,957.522 994.646,953.355 999.5,949C 1002.83,948.333 1006.17,948.333 1009.5,949C 1003.46,954.709 997.126,960.043 990.5,965C 997.167,970.667 1003.83,976.333 1010.5,982C 1006.83,982.667 1003.17,982.667 999.5,982C 994.684,978.019 990.018,973.852 985.5,969.5C 984.914,969.709 984.414,970.043 984,970.5C 983.501,974.486 983.334,978.486 983.5,982.5C 981.167,982.5 978.833,982.5 976.5,982.5C 976.5,971.167 976.5,959.833 976.5,948.5 Z"/></g>
<g><path style="opacity:1" fill="#040b01" d="M 1044.5,948.5 C 1046.83,948.5 1049.17,948.5 1051.5,948.5C 1051.5,952.833 1051.5,957.167 1051.5,961.5C 1058.17,961.5 1064.83,961.5 1071.5,961.5C 1071.5,957.167 1071.5,952.833 1071.5,948.5C 1073.83,948.5 1076.17,948.5 1078.5,948.5C 1078.5,959.833 1078.5,971.167 1078.5,982.5C 1076.17,982.5 1073.83,982.5 1071.5,982.5C 1071.5,977.833 1071.5,973.167 1071.5,968.5C 1064.83,968.5 1058.17,968.5 1051.5,968.5C 1051.5,973.167 1051.5,977.833 1051.5,982.5C 1049.17,982.5 1046.83,982.5 1044.5,982.5C 1044.5,971.167 1044.5,959.833 1044.5,948.5 Z"/></g>
<g><path style="opacity:1" fill="#1e0600" d="M 28.5,965.5 C 26.46,968.134 24.2933,968.134 22,965.5C 20.4874,961.229 21.9874,958.895 26.5,958.5C 28.0293,958.529 29.196,959.196 30,960.5C 30.6667,963.833 30.6667,967.167 30,970.5C 28.1917,972.396 26.025,972.896 23.5,972C 22.4829,970.951 22.3162,969.784 23,968.5C 25.8641,971.326 28.0308,970.826 29.5,967C 29.4301,966.235 29.0967,965.735 28.5,965.5 Z"/></g>
<g><path style="opacity:1" fill="#0c1a05" d="M 1881.5,958.5 C 1883.72,958.178 1885.56,958.845 1887,960.5C 1887.67,963.833 1887.67,967.167 1887,970.5C 1884.16,973.371 1881.83,973.037 1880,969.5C 1879.01,965.525 1879.51,961.859 1881.5,958.5 Z"/></g>
<g><path style="opacity:1" fill="#e80000" d="M 28.5,965.5 C 24.8622,966.263 23.3622,964.93 24,961.5C 28.5845,959.587 30.0845,960.921 28.5,965.5 Z"/></g>
<g><path style="opacity:1" fill="#00f200" d="M 1882.5,960.5 C 1883.82,960.33 1884.99,960.663 1886,961.5C 1886.67,964.167 1886.67,966.833 1886,969.5C 1884.67,970.833 1883.33,970.833 1882,969.5C 1881.26,966.408 1881.43,963.408 1882.5,960.5 Z"/></g>
<g><path style="opacity:1" fill="#1a0400" d="M 3.5,958.5 C 6.27757,958.022 8.27757,959.022 9.5,961.5C 7.52191,960.85 5.35524,960.85 3,961.5C 2.0644,964.569 2.89774,965.236 5.5,963.5C 9.14713,964.486 10.3138,966.819 9,970.5C 5.98765,973.25 3.32098,972.917 1,969.5C -0.188209,965.259 0.645124,961.592 3.5,958.5 Z"/></g>
<g><path style="opacity:1" fill="#170400" d="M 39.5,958.5 C 41.924,958.192 44.2573,958.526 46.5,959.5C 44.604,960.466 42.604,960.799 40.5,960.5C 40.5,961.5 40.5,962.5 40.5,963.5C 46.6426,964.026 47.9759,966.86 44.5,972C 40.8905,973.131 39.0572,971.965 39,968.5C 41.5365,971.313 43.7031,971.146 45.5,968C 44.1773,965.335 42.1773,964.835 39.5,966.5C 38.5508,963.874 38.5508,961.208 39.5,958.5 Z"/></g>
<g><path style="opacity:1" fill="#520801" d="M 14.5,958.5 C 15.0776,963.267 14.0776,967.934 11.5,972.5C 11.1667,972.333 10.8333,972.167 10.5,972C 12.141,967.578 13.4743,963.078 14.5,958.5 Z"/></g>
<g><path style="opacity:1" fill="#f30000" d="M 3.5,965.5 C 7.13776,964.737 8.63776,966.07 8,969.5C 3.41546,971.413 1.91546,970.079 3.5,965.5 Z"/></g>
<g><path style="opacity:1" fill="#050e01" d="M 1897.5,958.5 C 1902.5,957.671 1904.67,959.671 1904,964.5C 1902.17,966.333 1900.33,968.167 1898.5,970C 1900.58,970.192 1902.58,970.692 1904.5,971.5C 1901.5,972.833 1898.5,972.833 1895.5,971.5C 1897.48,969.016 1899.65,966.683 1902,964.5C 1902.49,963.207 1902.66,961.873 1902.5,960.5C 1900.18,960.229 1898.18,960.896 1896.5,962.5C 1896.17,962.167 1895.83,961.833 1895.5,961.5C 1896.19,960.482 1896.86,959.482 1897.5,958.5 Z"/></g>
<g><path style="opacity:1" fill="#0d0200" d="M 864.5,1009.5 C 873.833,1009.5 883.167,1009.5 892.5,1009.5C 892.66,1011.2 892.494,1012.87 892,1014.5C 885.833,1020 879.667,1025.5 873.5,1031C 879.825,1031.5 886.158,1031.67 892.5,1031.5C 892.5,1033.17 892.5,1034.83 892.5,1036.5C 883.167,1036.5 873.833,1036.5 864.5,1036.5C 864.201,1034.4 864.534,1032.4 865.5,1030.5C 871.647,1025.52 877.647,1020.35 883.5,1015C 877.175,1014.5 870.842,1014.33 864.5,1014.5C 864.5,1012.83 864.5,1011.17 864.5,1009.5 Z"/></g>
<g><path style="opacity:1" fill="#120300" d="M 918.5,1009.5 C 926.507,1009.33 934.507,1009.5 942.5,1010C 945.428,1013.26 946.262,1017.09 945,1021.5C 943.307,1023.6 941.14,1025.1 938.5,1026C 940.955,1029.08 943.289,1032.24 945.5,1035.5C 943.167,1036.83 940.833,1036.83 938.5,1035.5C 936.5,1032.5 934.5,1029.5 932.5,1026.5C 929.914,1025.52 927.247,1025.19 924.5,1025.5C 924.5,1029.17 924.5,1032.83 924.5,1036.5C 922.5,1036.5 920.5,1036.5 918.5,1036.5C 918.5,1027.5 918.5,1018.5 918.5,1009.5 Z"/></g>
<g><path style="opacity:1" fill="#010300" d="M 972.5,1009.5 C 974.527,1009.34 976.527,1009.5 978.5,1010C 983.667,1015.83 988.833,1021.67 994,1027.5C 994.499,1021.51 994.666,1015.51 994.5,1009.5C 996.167,1009.5 997.833,1009.5 999.5,1009.5C 999.5,1018.5 999.5,1027.5 999.5,1036.5C 997.801,1036.66 996.134,1036.49 994.5,1036C 989,1029.83 983.5,1023.67 978,1017.5C 977.5,1023.82 977.334,1030.16 977.5,1036.5C 975.833,1036.5 974.167,1036.5 972.5,1036.5C 972.5,1027.5 972.5,1018.5 972.5,1009.5 Z"/></g>
<g><path style="opacity:1" fill="#030a01" d="M 1035.5,1009.5 C 1043.95,1007.72 1049.95,1010.72 1053.5,1018.5C 1052.5,1018.83 1051.5,1019.17 1050.5,1019.5C 1047.39,1017.2 1043.89,1015.53 1040,1014.5C 1032.65,1016.21 1030.31,1020.54 1033,1027.5C 1037.94,1032.6 1042.78,1032.43 1047.5,1027C 1049.5,1026.33 1051.5,1026.33 1053.5,1027C 1049.35,1035.74 1042.68,1038.4 1033.5,1035C 1023.67,1025.51 1024.34,1017.01 1035.5,1009.5 Z"/></g>
<g><path style="opacity:1" fill="#fd0000" d="M 924.5,1014.5 C 929.511,1014.33 934.511,1014.5 939.5,1015C 940.833,1016.67 940.833,1018.33 939.5,1020C 934.511,1020.5 929.511,1020.67 924.5,1020.5C 924.5,1018.5 924.5,1016.5 924.5,1014.5 Z"/></g>
<g><path style="opacity:1" fill="#1a0400" d="M 21.5,1015.5 C 24.5,1015.5 27.5,1015.5 30.5,1015.5C 28.4214,1020 26.5881,1024.67 25,1029.5C 24.3468,1025.13 25.5135,1021.29 28.5,1018C 25.6385,1018.03 23.3052,1017.2 21.5,1015.5 Z"/></g>
<g><path style="opacity:1" fill="#0c1a05" d="M 1881.5,1015.5 C 1883.72,1015.18 1885.56,1015.84 1887,1017.5C 1887.67,1020.83 1887.67,1024.17 1887,1027.5C 1884.16,1030.37 1881.83,1030.04 1880,1026.5C 1879.01,1022.53 1879.51,1018.86 1881.5,1015.5 Z"/></g>
<g><path style="opacity:1" fill="#000000" d="M 1900.5,1015.5 C 1901.65,1019.98 1901.82,1024.65 1901,1029.5C 1900.67,1025.83 1900.33,1022.17 1900,1018.5C 1898.75,1019.77 1897.59,1020.11 1896.5,1019.5C 1898.19,1018.48 1899.52,1017.15 1900.5,1015.5 Z"/></g>
<g><path style="opacity:1" fill="#00f200" d="M 1882.5,1017.5 C 1883.82,1017.33 1884.99,1017.66 1886,1018.5C 1886.67,1021.17 1886.67,1023.83 1886,1026.5C 1884.67,1027.83 1883.33,1027.83 1882,1026.5C 1881.26,1023.41 1881.43,1020.41 1882.5,1017.5 Z"/></g>
<g><path style="opacity:1" fill="#1a0400" d="M 3.5,1015.5 C 6.27757,1015.02 8.27757,1016.02 9.5,1018.5C 7.52191,1017.85 5.35524,1017.85 3,1018.5C 2.0644,1021.57 2.89774,1022.24 5.5,1020.5C 9.14713,1021.49 10.3138,1023.82 9,1027.5C 5.98765,1030.25 3.32098,1029.92 1,1026.5C -0.188209,1022.26 0.645124,1018.59 3.5,1015.5 Z"/></g>
<g><path style="opacity:1" fill="#1a0400" d="M 40.5,1015.5 C 43.2776,1015.02 45.2776,1016.02 46.5,1018.5C 44.5219,1017.85 42.3552,1017.85 40,1018.5C 39.0644,1021.57 39.8977,1022.24 42.5,1020.5C 46.1471,1021.49 47.3138,1023.82 46,1027.5C 42.9876,1030.25 40.321,1029.92 38,1026.5C 36.8118,1022.26 37.6451,1018.59 40.5,1015.5 Z"/></g>
<g><path style="opacity:1" fill="#520801" d="M 14.5,1015.5 C 15.0776,1020.27 14.0776,1024.93 11.5,1029.5C 11.1667,1029.33 10.8333,1029.17 10.5,1029C 12.141,1024.58 13.4743,1020.08 14.5,1015.5 Z"/></g>
<g><path style="opacity:1" fill="#f30000" d="M 3.5,1022.5 C 7.13776,1021.74 8.63776,1023.07 8,1026.5C 3.41546,1028.41 1.91546,1027.08 3.5,1022.5 Z"/></g>
<g><path style="opacity:1" fill="#f30000" d="M 40.5,1022.5 C 44.1378,1021.74 45.6378,1023.07 45,1026.5C 40.4155,1028.41 38.9155,1027.08 40.5,1022.5 Z"/></g>
<g><path style="opacity:1" fill="#100200" d="M 893.5,1057.5 C 903.287,1056.46 908.12,1060.79 908,1070.5C 903.308,1079.34 896.975,1080.67 889,1074.5C 885.82,1067.37 887.32,1061.71 893.5,1057.5 Z"/></g>
<g><path style="opacity:1" fill="#180500" d="M 928.5,1057.5 C 934.842,1057.33 941.175,1057.5 947.5,1058C 952.119,1063.43 951.119,1067.6 944.5,1070.5C 946.412,1072.66 948.079,1074.99 949.5,1077.5C 947.926,1078.63 946.259,1078.8 944.5,1078C 942.709,1075.59 941.043,1073.09 939.5,1070.5C 937.604,1069.53 935.604,1069.2 933.5,1069.5C 933.5,1072.5 933.5,1075.5 933.5,1078.5C 931.833,1078.5 930.167,1078.5 928.5,1078.5C 928.5,1071.5 928.5,1064.5 928.5,1057.5 Z"/></g>
<g><path style="opacity:1" fill="#050e01" d="M 971.5,1057.5 C 973.144,1057.29 974.644,1057.62 976,1058.5C 977.667,1062.83 979.333,1067.17 981,1071.5C 983.257,1067.32 985.257,1062.98 987,1058.5C 988.388,1057.45 989.888,1057.28 991.5,1058C 988.935,1064.52 986.269,1071.02 983.5,1077.5C 981.955,1078.45 980.288,1078.79 978.5,1078.5C 976.364,1071.43 974.031,1064.43 971.5,1057.5 Z"/></g>
<g><path style="opacity:1" fill="#030a01" d="M 1018.5,1057.5 C 1025.22,1055.95 1030.22,1058.11 1033.5,1064C 1030.67,1064.97 1028.34,1064.3 1026.5,1062C 1020.91,1060.45 1017.58,1062.45 1016.5,1068C 1019.4,1075.14 1023.73,1076.14 1029.5,1071C 1034.2,1070.88 1034.53,1072.55 1030.5,1076C 1018.82,1080.98 1012.99,1077.15 1013,1064.5C 1013.97,1061.38 1015.8,1059.05 1018.5,1057.5 Z"/></g>
<g><path style="opacity:1" fill="#0c1a05" d="M 1881.5,1060.5 C 1883.72,1060.18 1885.56,1060.84 1887,1062.5C 1887.67,1065.83 1887.67,1069.17 1887,1072.5C 1884.16,1075.37 1881.83,1075.04 1880,1071.5C 1879.01,1067.53 1879.51,1063.86 1881.5,1060.5 Z"/></g>
<g><path style="opacity:1" fill="#0c1a05" d="M 1897.5,1060.5 C 1899.72,1060.18 1901.56,1060.84 1903,1062.5C 1903.67,1065.83 1903.67,1069.17 1903,1072.5C 1900.16,1075.37 1897.83,1075.04 1896,1071.5C 1895.01,1067.53 1895.51,1063.86 1897.5,1060.5 Z"/></g>
<g><path style="opacity:1" fill="#f70000" d="M 894.5,1061.5 C 900.679,1060.86 903.846,1063.52 904,1069.5C 900.797,1075.14 896.797,1075.8 892,1071.5C 890.861,1067.58 891.695,1064.25 894.5,1061.5 Z"/></g>
<g><path style="opacity:1" fill="#f90000" d="M 933.5,1061.5 C 937.514,1061.33 941.514,1061.5 945.5,1062C 946.833,1063 946.833,1064 945.5,1065C 941.514,1065.5 937.514,1065.67 933.5,1065.5C 933.5,1064.17 933.5,1062.83 933.5,1061.5 Z"/></g>
<g><path style="opacity:1" fill="#00f200" d="M 1882.5,1062.5 C 1883.82,1062.33 1884.99,1062.66 1886,1063.5C 1886.67,1066.17 1886.67,1068.83 1886,1071.5C 1884.67,1072.83 1883.33,1072.83 1882,1071.5C 1881.26,1068.41 1881.43,1065.41 1882.5,1062.5 Z"/></g>
<g><path style="opacity:1" fill="#00f200" d="M 1898.5,1062.5 C 1899.82,1062.33 1900.99,1062.66 1902,1063.5C 1902.67,1066.17 1902.67,1068.83 1902,1071.5C 1900.67,1072.83 1899.33,1072.83 1898,1071.5C 1897.26,1068.41 1897.43,1065.41 1898.5,1062.5 Z"/></g>
<g><path style="opacity:1" fill="#1a0400" d="M 3.5,1060.5 C 6.27757,1060.02 8.27757,1061.02 9.5,1063.5C 7.52191,1062.85 5.35524,1062.85 3,1063.5C 2.0644,1066.57 2.89774,1067.24 5.5,1065.5C 9.14713,1066.49 10.3138,1068.82 9,1072.5C 5.98765,1075.25 3.32098,1074.92 1,1071.5C -0.188209,1067.26 0.645124,1063.59 3.5,1060.5 Z"/></g>
<g><path style="opacity:1" fill="#1a0400" d="M 24.5,1060.5 C 27.2776,1060.02 29.2776,1061.02 30.5,1063.5C 28.5219,1062.85 26.3552,1062.85 24,1063.5C 23.0644,1066.57 23.8977,1067.24 26.5,1065.5C 30.1471,1066.49 31.3138,1068.82 30,1072.5C 26.9876,1075.25 24.321,1074.92 22,1071.5C 20.8118,1067.26 21.6451,1063.59 24.5,1060.5 Z"/></g>
<g><path style="opacity:1" fill="#520801" d="M 14.5,1060.5 C 15.0776,1065.27 14.0776,1069.93 11.5,1074.5C 11.1667,1074.33 10.8333,1074.17 10.5,1074C 12.141,1069.58 13.4743,1065.08 14.5,1060.5 Z"/></g>
<g><path style="opacity:1" fill="#f30000" d="M 3.5,1067.5 C 7.13776,1066.74 8.63776,1068.07 8,1071.5C 3.41546,1073.41 1.91546,1072.08 3.5,1067.5 Z"/></g>
<g><path style="opacity:1" fill="#f30000" d="M 24.5,1067.5 C 28.1378,1066.74 29.6378,1068.07 29,1071.5C 24.4155,1073.41 22.9155,1072.08 24.5,1067.5 Z"/></g>
<g><path style="opacity:1" fill="#250800" d="M 40.5,1060.5 C 43.2385,1059.96 45.0718,1060.96 46,1063.5C 46.6667,1066.17 46.6667,1068.83 46,1071.5C 43.5247,1075.41 40.858,1075.41 38,1071.5C 36.8118,1067.26 37.6451,1063.59 40.5,1060.5 Z"/></g>
<g><path style="opacity:1" fill="#f70000" d="M 40.5,1062.5 C 41.8221,1062.33 42.9887,1062.66 44,1063.5C 44.6667,1066.17 44.6667,1068.83 44,1071.5C 42.6667,1072.83 41.3333,1072.83 40,1071.5C 39.2642,1068.41 39.4309,1065.41 40.5,1062.5 Z"/></g>
</svg>
